<svg width="20" height="20" viewBox="0 0 20 20" fill="none" xmlns="http://www.w3.org/2000/svg">
<path d="M1.424 0.57525C1.36821 0.519464 1.30198 0.475213 1.2291 0.445022C1.15621 0.414831 1.07809 0.399292 0.999195 0.399292C0.920303 0.399292 0.842183 0.414831 0.769295 0.445022C0.696408 0.475213 0.630181 0.519464 0.574395 0.57525C0.51861 0.631035 0.474358 0.697262 0.444168 0.77015C0.413977 0.843037 0.398437 0.921157 0.398438 1.00005C0.398438 1.07894 0.413977 1.15706 0.444168 1.22995C0.474358 1.30284 0.51861 1.36906 0.574395 1.42485L4.7744 5.62245C2.69428 7.04125 1.24616 9.21213 0.735195 11.6776C0.719122 11.7549 0.718414 11.8345 0.733114 11.912C0.747813 11.9895 0.777632 12.0633 0.820867 12.1293C0.864102 12.1952 0.919906 12.2521 0.985095 12.2965C1.05028 12.3409 1.12358 12.372 1.2008 12.3881C1.27801 12.4041 1.35764 12.4048 1.43513 12.3901C1.51262 12.3754 1.58646 12.3456 1.65242 12.3024C1.71839 12.2591 1.7752 12.2033 1.8196 12.1382C1.864 12.073 1.89512 11.9997 1.9112 11.9225C2.14012 10.8143 2.58778 9.76301 3.22797 8.83002C3.86817 7.89703 4.68804 7.10111 5.6396 6.48885L7.5428 8.39205C7.04932 8.74788 6.63904 9.20668 6.34034 9.7367C6.04165 10.2667 5.86166 10.8553 5.81284 11.4617C5.76402 12.0681 5.84753 12.6779 6.05759 13.2489C6.26765 13.8199 6.59925 14.3384 7.02945 14.7686C7.45964 15.1988 7.97816 15.5304 8.54914 15.7405C9.12011 15.9505 9.7299 16.034 10.3363 15.9852C10.9428 15.9364 11.5313 15.7564 12.0614 15.4577C12.5914 15.159 13.0502 14.7487 13.406 14.2552L18.5744 19.4249C18.6871 19.5375 18.8399 19.6008 18.9992 19.6008C19.1585 19.6008 19.3113 19.5375 19.424 19.4249C19.5367 19.3122 19.6 19.1594 19.6 19C19.6 18.8407 19.5367 18.6879 19.424 18.5753L1.424 0.57525ZM12.542 13.3913C12.3025 13.7734 11.9799 14.0966 11.5983 14.3368C11.2166 14.5771 10.7857 14.7282 10.3376 14.779C9.88949 14.8297 9.4357 14.7788 9.00998 14.63C8.58427 14.4811 8.19759 14.2382 7.8787 13.9193C7.55981 13.6005 7.31692 13.2138 7.16809 12.7881C7.01926 12.3623 6.96833 11.9086 7.01908 11.4604C7.06982 11.0123 7.22094 10.5814 7.4612 10.1998C7.70146 9.81813 8.02467 9.49555 8.4068 9.25605L12.542 13.3913ZM10.148 7.60245L14.1968 11.6513C14.1592 10.5894 13.7206 9.58128 12.9693 8.82997C12.218 8.07867 11.2098 7.64003 10.148 7.60245ZM9.9992 5.20005C9.3152 5.20005 8.64439 5.28885 7.99999 5.45565L7.0364 4.49205C7.99028 4.16647 8.99128 4.00024 9.9992 4.00005C14.4308 4.00005 18.3296 7.20765 19.2632 11.6776C19.2957 11.8336 19.2648 11.9961 19.1775 12.1293C19.0902 12.2625 18.9535 12.3556 18.7976 12.3881C18.6416 12.4205 18.4792 12.3897 18.346 12.3024C18.2127 12.2151 18.1197 12.0784 18.0872 11.9225C17.2688 7.99245 13.8476 5.20005 9.9992 5.20005Z" fill="black"/>
</svg>
