<svg width="24" height="24" viewBox="0 0 24 24" fill="none" xmlns="http://www.w3.org/2000/svg">
<path d="M3.424 2.57525C3.36821 2.51946 3.30198 2.47521 3.2291 2.44502C3.15621 2.41483 3.07809 2.39929 2.9992 2.39929C2.9203 2.39929 2.84218 2.41483 2.7693 2.44502C2.69641 2.47521 2.63018 2.51946 2.5744 2.57525C2.51861 2.63104 2.47436 2.69726 2.44417 2.77015C2.41398 2.84304 2.39844 2.92116 2.39844 3.00005C2.39844 3.07894 2.41398 3.15706 2.44417 3.22995C2.47436 3.30284 2.51861 3.36906 2.5744 3.42485L6.7744 7.62245C4.69428 9.04125 3.24616 11.2121 2.7352 13.6776C2.71912 13.7549 2.71841 13.8345 2.73311 13.912C2.74781 13.9895 2.77763 14.0633 2.82087 14.1293C2.8641 14.1952 2.91991 14.2521 2.98509 14.2965C3.05028 14.3409 3.12358 14.372 3.2008 14.3881C3.27801 14.4041 3.35764 14.4048 3.43513 14.3901C3.51262 14.3754 3.58646 14.3456 3.65242 14.3024C3.71839 14.2591 3.7752 14.2033 3.8196 14.1382C3.864 14.073 3.89512 13.9997 3.9112 13.9225C4.14012 12.8143 4.58778 11.763 5.22797 10.83C5.86817 9.89703 6.68804 9.10111 7.6396 8.48885L9.5428 10.392C9.04932 10.7479 8.63904 11.2067 8.34034 11.7367C8.04165 12.2667 7.86166 12.8553 7.81284 13.4617C7.76402 14.0681 7.84753 14.6779 8.05759 15.2489C8.26765 15.8199 8.59925 16.3384 9.02945 16.7686C9.45964 17.1988 9.97816 17.5304 10.5491 17.7405C11.1201 17.9505 11.7299 18.034 12.3363 17.9852C12.9428 17.9364 13.5313 17.7564 14.0614 17.4577C14.5914 17.159 15.0502 16.7487 15.406 16.2552L20.5744 21.4249C20.6871 21.5375 20.8399 21.6008 20.9992 21.6008C21.1585 21.6008 21.3113 21.5375 21.424 21.4249C21.5367 21.3122 21.6 21.1594 21.6 21C21.6 20.8407 21.5367 20.6879 21.424 20.5753L3.424 2.57525ZM14.542 15.3913C14.3025 15.7734 13.9799 16.0966 13.5983 16.3368C13.2166 16.5771 12.7857 16.7282 12.3376 16.779C11.8895 16.8297 11.4357 16.7788 11.01 16.63C10.5843 16.4811 10.1976 16.2382 9.8787 15.9193C9.55981 15.6005 9.31692 15.2138 9.16809 14.7881C9.01926 14.3623 8.96833 13.9086 9.01908 13.4604C9.06982 13.0123 9.22094 12.5814 9.4612 12.1998C9.70146 11.8181 10.0247 11.4956 10.4068 11.2561L14.542 15.3913ZM12.148 9.60245L16.1968 13.6513C16.1592 12.5894 15.7206 11.5813 14.9693 10.83C14.218 10.0787 13.2098 9.64003 12.148 9.60245ZM11.9992 7.20005C11.3152 7.20005 10.6444 7.28885 9.99999 7.45565L9.0364 6.49205C9.99028 6.16647 10.9913 6.00024 11.9992 6.00005C16.4308 6.00005 20.3296 9.20765 21.2632 13.6776C21.2957 13.8336 21.2648 13.9961 21.1775 14.1293C21.0902 14.2625 20.9535 14.3556 20.7976 14.3881C20.6416 14.4205 20.4792 14.3897 20.346 14.3024C20.2127 14.2151 20.1197 14.0784 20.0872 13.9225C19.2688 9.99245 15.8476 7.20005 11.9992 7.20005Z" fill="black"/>
</svg>
