<svg width="24" height="18" viewBox="0 0 24 18" fill="none" xmlns="http://www.w3.org/2000/svg">
<path d="M20.3171 1.49197C18.7871 0.801974 17.1471 0.291974 15.4321 0.0019736C15.4168 -0.000958481 15.401 0.000931061 15.3869 0.00738094C15.3727 0.0138308 15.3609 0.0245219 15.3531 0.0379736C15.1431 0.406974 14.9091 0.887974 14.7451 1.26797C12.9262 0.99621 11.077 0.99621 9.25811 1.26797C9.07545 0.846834 8.86946 0.436198 8.64111 0.0379736C8.63337 0.0243563 8.62167 0.0134234 8.60755 0.00663373C8.59343 -0.000155898 8.57759 -0.00247938 8.56211 -2.64894e-05C6.84811 0.289973 5.20811 0.799974 3.67711 1.49097C3.66394 1.4965 3.65278 1.50592 3.64511 1.51797C0.533114 6.09297 -0.319886 10.555 0.0991144 14.961C0.10028 14.9718 0.10363 14.9822 0.108959 14.9917C0.114289 15.0011 0.121486 15.0094 0.130114 15.016C1.94651 16.3384 3.97245 17.3458 6.12311 17.996C6.13811 18.0006 6.15414 18.0006 6.16913 17.9959C6.18411 17.9913 6.19735 17.9823 6.20711 17.97C6.66991 17.351 7.08001 16.6944 7.43311 16.007C7.43802 15.9976 7.44084 15.9872 7.4414 15.9766C7.44195 15.9661 7.44023 15.9555 7.43634 15.9456C7.43245 15.9358 7.42649 15.9268 7.41886 15.9195C7.41123 15.9121 7.40211 15.9065 7.39211 15.903C6.74612 15.6597 6.1202 15.3661 5.52011 15.025C5.50933 15.0188 5.50025 15.0101 5.49367 14.9995C5.4871 14.989 5.48324 14.977 5.48245 14.9646C5.48165 14.9522 5.48395 14.9398 5.48913 14.9286C5.49431 14.9173 5.5022 14.9075 5.51211 14.9C5.63811 14.807 5.76411 14.71 5.88411 14.613C5.89492 14.6043 5.90793 14.5987 5.9217 14.5969C5.93547 14.5952 5.94946 14.5973 5.96211 14.603C9.88911 16.367 14.1421 16.367 18.0231 14.603C18.0358 14.5969 18.0499 14.5946 18.0639 14.5961C18.0779 14.5977 18.0911 14.6032 18.1021 14.612C18.2221 14.71 18.3471 14.807 18.4741 14.9C18.4841 14.9073 18.4922 14.917 18.4975 14.9282C18.5028 14.9394 18.5053 14.9517 18.5047 14.9641C18.5041 14.9765 18.5005 14.9885 18.4941 14.9991C18.4877 15.0098 18.4788 15.0186 18.4681 15.025C17.8701 15.369 17.2481 15.66 16.5951 15.902C16.5851 15.9056 16.5759 15.9114 16.5683 15.9188C16.5607 15.9263 16.5547 15.9353 16.5508 15.9452C16.547 15.9551 16.5452 15.9658 16.5458 15.9764C16.5464 15.9871 16.5492 15.9975 16.5541 16.007C16.9141 16.694 17.3261 17.348 17.7791 17.969C17.7885 17.9817 17.8017 17.9912 17.8167 17.9963C17.8317 18.0013 17.8479 18.0015 17.8631 17.997C20.0175 17.3486 22.0467 16.3407 23.8651 15.016C23.874 15.0098 23.8814 15.0017 23.8869 14.9924C23.8925 14.9831 23.8959 14.9727 23.8971 14.962C24.3971 9.86797 23.0591 5.44197 20.3481 1.51997C20.3415 1.50723 20.3305 1.49729 20.3171 1.49197ZM8.02011 12.278C6.83811 12.278 5.86311 11.209 5.86311 9.89797C5.86311 8.58597 6.81911 7.51797 8.02011 7.51797C9.23011 7.51797 10.1961 8.59497 10.1771 9.89797C10.1771 11.21 9.22112 12.278 8.02011 12.278ZM15.9951 12.278C14.8121 12.278 13.8381 11.209 13.8381 9.89797C13.8381 8.58597 14.7931 7.51797 15.9951 7.51797C17.2051 7.51797 18.1711 8.59497 18.1521 9.89797C18.1521 11.21 17.2061 12.278 15.9951 12.278Z" fill="#6C69FF"/>
</svg>
