<svg width="22" height="22" viewBox="0 0 22 22" fill="none" xmlns="http://www.w3.org/2000/svg">
<path d="M19.9216 5.37364C16.7866 0.513637 10.3666 -0.926362 5.40163 2.08864C0.556633 5.10364 -1.00337 11.6736 2.13163 16.5186L2.38663 16.9086L1.33663 20.8386L5.26663 19.7886L5.65663 20.0436C7.35163 20.9586 9.19663 21.4836 11.0266 21.4836C12.9916 21.4836 14.9566 20.9586 16.6516 19.9086C21.4966 16.7586 22.9366 10.3236 19.9216 5.34364V5.37364ZM17.1766 15.4836C16.6516 16.2636 15.9916 16.7886 15.0766 16.9236C14.5516 16.9236 13.8916 17.1786 11.2816 16.1436C9.06163 15.0936 7.21663 13.3836 5.91163 11.4186C5.13163 10.5036 4.72663 9.31864 4.60663 8.13364C4.60663 7.08364 4.99663 6.16864 5.65663 5.50864C5.91163 5.25364 6.18163 5.11864 6.43663 5.11864H7.09663C7.35163 5.11864 7.62163 5.11864 7.75663 5.64364C8.01163 6.30364 8.67163 7.87864 8.67163 8.01364C8.80663 8.14864 8.74663 9.15364 8.14663 9.72364C7.81663 10.0986 7.75663 10.1136 7.89163 10.3836C8.41663 11.1636 9.07663 11.9586 9.72163 12.6186C10.5016 13.2786 11.2966 13.8036 12.2116 14.1936C12.4666 14.3286 12.7366 14.3286 12.8716 14.0586C13.0066 13.8036 13.6516 13.1436 13.9216 12.8736C14.1766 12.6186 14.3116 12.6186 14.5816 12.7386L16.6816 13.7886C16.9366 13.9236 17.2066 14.0436 17.3416 14.1786C17.4766 14.5686 17.4766 15.0936 17.2066 15.4836H17.1766Z" fill="#6EEE40"/>
</svg>
